<svg width="34" height="25" viewBox="0 0 34 25" fill="none" xmlns="http://www.w3.org/2000/svg">
<g clip-path="url(#clip0_117_1624)">
<path d="M18.3325 0.0718845C16.3553 -0.301553 14.5187 0.828134 14.3864 2.29063C14.2375 3.93282 13.9107 5.44064 13.5012 6.33751C13.2427 6.90001 12.5105 7.92032 11.3503 8.89845C10.1983 9.87189 8.69888 10.7391 6.943 11.1016C5.55318 11.3875 4.13647 12.2969 4.13647 13.625V19.8766C4.13647 21.1969 5.54697 22.1641 7.1312 22.2906C9.34416 22.4688 10.3658 22.9391 11.4082 23.4203L11.5075 23.4672C12.07 23.725 12.7029 24.0109 13.5136 24.2234C14.3347 24.4359 15.2943 24.5625 16.5456 24.5625H23.7842C25.7221 24.5625 27.0912 23.8172 27.7841 22.9C28.1189 22.4672 28.2999 21.9763 28.3094 21.475C28.3094 21.2375 28.2618 20.9875 28.1501 20.75C28.5658 20.3391 28.936 19.8469 29.1594 19.3422C29.3869 18.8266 29.5151 18.1516 29.1677 17.5469C29.3104 17.3438 29.4159 17.1266 29.4965 16.9172C29.6558 16.4953 29.7302 16.0297 29.7302 15.5781C29.7302 15.1281 29.6558 14.6641 29.4965 14.2406C29.4258 14.0456 29.3302 13.8561 29.2111 13.675C29.5732 13.2857 29.8062 12.8364 29.8905 12.3649C29.9747 11.8934 29.9077 11.4135 29.6951 10.9656C29.269 10.0406 28.2846 9.24688 27.2132 8.97813C25.4615 8.53751 23.4843 8.54688 22.0097 8.64845C21.7036 8.66934 21.3981 8.69539 21.0935 8.72657C21.808 6.40506 21.764 3.98705 20.9653 1.68126C20.8258 1.31187 20.5582 0.97733 20.1903 0.712243C19.8223 0.447157 19.3673 0.261146 18.8723 0.173447L18.3325 0.0718845ZM23.7842 23.0016H16.5456C15.4908 23.0016 14.7607 22.8938 14.1878 22.7453C13.6067 22.5938 13.1413 22.3891 12.5829 22.1313L12.5002 22.0938C11.3524 21.5641 10.0225 20.9516 7.35043 20.7375C6.66172 20.6813 6.20466 20.2844 6.20466 19.8781V13.625C6.20466 13.2281 6.67207 12.7766 7.48693 12.6094C9.75159 12.1406 11.5757 11.0531 12.8932 9.94063C14.2065 8.83126 15.0937 7.63595 15.4536 6.85001C15.9561 5.75626 16.2953 4.08751 16.4504 2.39688C16.5021 1.83126 17.195 1.46876 17.8299 1.58751L18.3718 1.69063C18.7027 1.75313 18.9054 1.91407 18.9674 2.08907C19.812 4.52036 19.7079 7.0843 18.6675 9.47188C18.6086 9.60468 18.5981 9.74699 18.637 9.88392C18.6758 10.0209 18.7627 10.1474 18.8885 10.2502C19.0143 10.3531 19.1744 10.4285 19.352 10.4686C19.5296 10.5087 19.7182 10.512 19.8981 10.4781L19.9043 10.4766L19.9332 10.4719L20.0532 10.45C20.7605 10.3369 21.4759 10.255 22.1958 10.2047C23.567 10.1109 25.2092 10.1203 26.5597 10.4609C26.9216 10.5516 27.4904 10.9297 27.7386 11.4766C27.9599 11.9578 27.9185 12.5234 27.1884 13.0734L26.4584 13.625L27.1884 14.1781C27.2774 14.2453 27.4056 14.3984 27.5069 14.6703C27.6062 14.9313 27.662 15.2484 27.662 15.5781C27.662 15.9094 27.6062 16.225 27.5069 16.4875C27.4035 16.7594 27.2774 16.9125 27.1884 16.9797L26.4584 17.5313L27.1884 18.0844C27.2856 18.1578 27.4139 18.3609 27.1988 18.8469C26.9761 19.3186 26.6196 19.7479 26.1543 20.1047L25.4243 20.6563L26.1543 21.2094C26.1667 21.2172 26.2391 21.2875 26.2391 21.475C26.227 21.7038 26.1411 21.927 25.9889 22.125C25.6476 22.575 24.9486 23.0016 23.7842 23.0016Z" fill="black"/>
</g>
<defs>
<clipPath id="clip0_117_1624">
<rect width="33.0909" height="25" fill="white"/>
</clipPath>
</defs>
</svg>
