<svg width="28" height="23" viewBox="0 0 28 23" fill="none" xmlns="http://www.w3.org/2000/svg">
<g clip-path="url(#clip0_117_1726)">
<path d="M10.1967 7.90625C10.1967 8.47812 9.92821 9.02657 9.45031 9.43095C8.97241 9.83532 8.32424 10.0625 7.64839 10.0625C6.97254 10.0625 6.32437 9.83532 5.84648 9.43095C5.36858 9.02657 5.1001 8.47812 5.1001 7.90625C5.1001 7.33438 5.36858 6.78593 5.84648 6.38155C6.32437 5.97718 6.97254 5.75 7.64839 5.75C8.32424 5.75 8.97241 5.97718 9.45031 6.38155C9.92821 6.78593 10.1967 7.33438 10.1967 7.90625Z" fill="black"/>
<path d="M3.40115 0.4375C2.50001 0.4375 1.63579 0.740401 0.998589 1.27957C0.361392 1.81874 0.00341797 2.55 0.00341797 3.3125V17.6875C0.00341797 18.45 0.361392 19.1813 0.998589 19.7204C1.63579 20.2596 2.50001 20.5625 3.40115 20.5625H23.7875C24.6886 20.5625 25.5529 20.2596 26.1901 19.7204C26.8273 19.1813 27.1852 18.45 27.1852 17.6875V3.3125C27.1852 2.55 26.8273 1.81874 26.1901 1.27957C25.5529 0.740401 24.6886 0.4375 23.7875 0.4375H3.40115ZM23.7875 1.875C24.2381 1.875 24.6702 2.02645 24.9888 2.29603C25.3074 2.56562 25.4864 2.93125 25.4864 3.3125V12.6562L19.0698 9.85744C18.9104 9.78991 18.7301 9.76648 18.5542 9.79047C18.3782 9.81447 18.2157 9.88466 18.0895 9.99113L11.7867 15.3243L7.26776 12.777C7.1046 12.6851 6.90889 12.6437 6.71382 12.66C6.51876 12.6762 6.33633 12.7491 6.19747 12.8661L1.70228 16.25V3.3125C1.70228 2.93125 1.88127 2.56562 2.19987 2.29603C2.51847 2.02645 2.95058 1.875 3.40115 1.875H23.7875Z" fill="black"/>
</g>
<defs>
<clipPath id="clip0_117_1726">
<rect width="27.1818" height="23" fill="white"/>
</clipPath>
</defs>
</svg>
