<svg width="28" height="23" viewBox="0 0 28 23" fill="none" xmlns="http://www.w3.org/2000/svg">
<path fill-rule="evenodd" clip-rule="evenodd" d="M18.0861 0.928628C18.165 0.861693 18.2587 0.808588 18.3619 0.772354C18.4651 0.73612 18.5758 0.717468 18.6875 0.717468C18.7992 0.717468 18.9099 0.73612 19.0131 0.772354C19.1163 0.808588 19.21 0.861693 19.2889 0.928628L26.0843 6.67863C26.1635 6.74539 26.2262 6.82471 26.269 6.91203C26.3119 6.99935 26.3339 7.09296 26.3339 7.1875C26.3339 7.28204 26.3119 7.37565 26.269 7.46298C26.2262 7.5503 26.1635 7.62961 26.0843 7.69638L22.8531 10.4305L21.4448 15.1929C21.3377 15.5556 21.121 15.8884 20.816 16.1588C20.511 16.4292 20.1282 16.6279 19.7051 16.7354L2.13037 21.1974L7.40364 6.325C7.53075 5.96744 7.76541 5.64393 8.08465 5.38615C8.40389 5.12837 8.79677 4.94516 9.22482 4.85444L14.8532 3.66419L18.0861 0.928628ZM15.0281 5.10888L9.63765 6.24882C9.49456 6.27903 9.36323 6.34026 9.25659 6.42646C9.14995 6.51266 9.07167 6.62087 9.02946 6.74044L4.66338 19.0526L19.2175 15.3583C19.358 15.3222 19.4851 15.256 19.5863 15.1661C19.6875 15.0761 19.7595 14.9655 19.7952 14.8451L21.1441 10.2824L15.0281 5.10888Z" fill="black"/>
<path fill-rule="evenodd" clip-rule="evenodd" d="M4.81114 19.0152L13.5909 12.9375C13.9269 12.9375 14.2553 12.8532 14.5347 12.6952C14.8141 12.5373 15.0318 12.3128 15.1604 12.0501C15.289 11.7874 15.3226 11.4984 15.2571 11.2196C15.1915 10.9407 15.0297 10.6846 14.7921 10.4835C14.5546 10.2825 14.2518 10.1456 13.9223 10.0901C13.5928 10.0347 13.2512 10.0631 12.9407 10.1719C12.6303 10.2807 12.365 10.465 12.1783 10.7014C11.9916 10.9378 11.892 11.2157 11.892 11.5L4.70921 18.929L4.66504 19.0526L4.81114 19.0152Z" fill="black"/>
</svg>
